<svg xmlns="http://www.w3.org/2000/svg" version="1.1" xmlns:xlink="http://www.w3.org/1999/xlink" xmlns:svgjs="http://svgjs.dev/svgjs" width="100px" height="100.002px"><svg version="1.1" xmlns="http://www.w3.org/2000/svg" xmlns:xlink="http://www.w3.org/1999/xlink" x="0px" y="0px" width="100px" height="100.002px" viewBox="0 0 100 100.002" enable-background="new 0 0 100 100.002" xml:space="preserve">
<g id="SvgjsG1027">
	<g>
		<path fill="#FFFFFF" d="M50,86.138c-19.927,0-36.135-16.21-36.135-36.137S30.073,13.864,50,13.864
			c19.925,0,36.135,16.21,36.135,36.137S69.925,86.138,50,86.138z"></path>
		<path fill="#B2DBF1" d="M20.049,66.055c-2.633-4.902-4.025-10.454-4.025-16.054c0-18.735,15.242-33.979,33.976-33.979
			c6.781,0,13.328,1.993,18.935,5.764l0.269,0.182H48.228l-0.009-0.09c-0.006-0.054-0.014-0.104-0.029-0.158l-0.011-0.039
			c-0.019-0.059-0.047-0.12-0.077-0.18c-0.015-0.028-0.03-0.058-0.048-0.084c-0.029-0.047-0.061-0.091-0.096-0.136
			c-0.029-0.037-0.044-0.057-0.062-0.077c-0.044-0.05-0.091-0.097-0.143-0.144l-0.07-0.063c-0.057-0.049-0.122-0.099-0.189-0.146
			l-0.043-0.029c-0.231-0.161-0.501-0.3-0.8-0.415l-0.23-0.088l-0.08-0.222l-0.03-0.057c-0.081-0.168-0.22-0.305-0.4-0.395
			l-0.275-0.139v-1.801h-0.506v1.801l-0.274,0.141c-0.049,0.025-0.094,0.051-0.135,0.082c-0.043,0.031-0.08,0.062-0.112,0.096
			c-0.043,0.046-0.07,0.076-0.093,0.11c-0.036,0.054-0.057,0.09-0.072,0.128l-0.096,0.206l-0.212,0.071
			c-0.136,0.05-0.223,0.084-0.308,0.122c-0.063,0.026-0.125,0.055-0.186,0.085l-0.044,0.021c-0.358,0.181-0.652,0.384-0.875,0.608
			l-0.048,0.049c-0.034,0.037-0.063,0.068-0.088,0.101c-0.043,0.051-0.08,0.104-0.114,0.157l-0.035,0.058
			c-0.033,0.061-0.062,0.122-0.082,0.184l-0.009,0.03c-0.021,0.075-0.032,0.143-0.032,0.201v2.465l-0.187,0.147l-0.131,0.117
			c-0.075,0.068-0.139,0.129-0.196,0.189l-0.05,0.052c-0.066,0.073-0.128,0.146-0.186,0.22l-0.021,0.029
			c-0.063,0.085-0.12,0.171-0.173,0.259c-0.06,0.104-0.108,0.197-0.148,0.293c-0.045,0.104-0.078,0.198-0.105,0.294
			c-0.033,0.116-0.053,0.207-0.065,0.299l-0.01,0.052c-0.014,0.1-0.021,0.206-0.021,0.314c0,0.13,0.012,0.263,0.035,0.398
			c0.07,0.405,0.24,0.789,0.506,1.14l0.06,0.073l0.063,0.082l-0.845,18.41l-0.428,9.339l-0.089,0.006
			c-7.544,0.47-14.312,3.814-20.115,9.942l-0.095,0.099L20.049,66.055z"></path>
		<path fill="#B2DBF1" d="M77.446,69.852c-4.739-3.835-11.035-6.979-17.729-8.854l-0.071-0.021l0.029-26.04l-0.003-0.08l0.003-1.83
			c0-0.392-0.243-0.792-0.54-0.891c-0.049-0.016-0.096-0.023-0.137-0.023c-0.258,0-0.446,0.25-0.446,0.594l-0.031,27.88
			l-0.149-0.087c-2.231-1.287-4.761-2.363-7.32-3.111l-0.065-0.021l-1.988-28.993l0.113-0.15c0.27-0.355,0.442-0.738,0.511-1.136
			c0.024-0.142,0.036-0.272,0.036-0.4c0-0.106-0.009-0.214-0.024-0.328c-0.003-0.023-0.009-0.046-0.014-0.069l-0.009-0.037
			c-0.014-0.074-0.027-0.145-0.048-0.214c-0.008-0.032-0.02-0.063-0.031-0.095c-0.031-0.091-0.054-0.154-0.079-0.216
			c-0.016-0.035-0.033-0.068-0.051-0.104c-0.039-0.08-0.069-0.136-0.104-0.193c-0.024-0.043-0.052-0.085-0.08-0.128
			c-0.036-0.052-0.071-0.103-0.11-0.154c-0.032-0.042-0.066-0.084-0.103-0.127c-0.039-0.046-0.081-0.093-0.122-0.137
			c-0.041-0.043-0.083-0.083-0.125-0.126c-0.046-0.042-0.093-0.083-0.141-0.125c-0.044-0.037-0.091-0.077-0.138-0.113l-0.06-0.05
			l-0.198-0.147v-1.229l27.825,5.094l0.022,0.026c5.099,6.093,7.906,13.83,7.906,21.786c0,7.171-2.21,14.028-6.387,19.832
			l-0.062,0.084L77.446,69.852z M63.438,41.994c1.787,0,3.344,0.366,4.719,0.689c1.118,0.263,2.082,0.49,2.982,0.49
			c1.61,0,2.774-0.8,3.775-2.593l0,0c-0.2,0.04-0.404,0.061-0.604,0.061c-1.819,0-3.56-1.582-5.4-3.256
			c-2.108-1.918-4.498-4.09-7.365-4.09c-0.45,0-0.907,0.053-1.359,0.157l0.661,8.807C61.708,42.081,62.556,41.994,63.438,41.994z"></path>
		<path fill="#E30018" d="M49.999,1.841c-26.555,0-48.158,21.604-48.158,48.16s21.604,48.161,48.158,48.161
			s48.159-21.605,48.159-48.161S76.554,1.841,49.999,1.841z M49.999,85.272c-19.449,0-35.269-15.821-35.269-35.271
			S30.55,14.73,49.999,14.73c19.448,0,35.27,15.82,35.27,35.271S69.447,85.272,49.999,85.272z"></path>
		<g>
			<path fill="#FFFFFF" d="M12.957,38.711c0.08,0.314,0.082,0.968-0.1,1.752c-0.483,2.07-2.088,3.023-4.093,2.557
				c-2.17-0.507-3.133-2.301-2.668-4.295c0.183-0.784,0.48-1.308,0.663-1.52l0.898,0.484c-0.21,0.276-0.428,0.677-0.552,1.22
				c-0.311,1.326,0.307,2.479,1.892,2.849c1.447,0.338,2.571-0.288,2.906-1.721c0.114-0.483,0.134-1.01,0.058-1.355L12.957,38.711z"></path>
			<path fill="#FFFFFF" d="M7.382,34.827l0.455-1.132l5.322,2.132l1.025-2.557l0.96,0.386l-1.481,3.691L7.382,34.827z"></path>
			<path fill="#FFFFFF" d="M10.376,28.216l3.395,2.012c1.141,0.676,1.948,0.516,2.367-0.192c0.452-0.763,0.194-1.528-0.947-2.203
				l-3.396-2.011l0.624-1.052l3.325,1.971c1.798,1.063,2.05,2.448,1.229,3.835c-0.791,1.334-2.055,1.754-3.887,0.668l-3.335-1.976
				L10.376,28.216z"></path>
			<path fill="#FFFFFF" d="M14.271,22.397c0.19-0.348,0.602-0.923,1.048-1.446c0.586-0.686,1.031-1.039,1.571-1.177
				c0.464-0.156,0.979-0.081,1.415,0.291c0.475,0.402,0.658,1.071,0.394,1.797l0.016,0.015c0.595-0.421,1.442-0.546,2.152,0.059
				c0.459,0.392,0.651,0.894,0.644,1.397c0.012,0.636-0.338,1.37-1.132,2.3c-0.438,0.516-0.812,0.875-1.042,1.083L14.271,22.397z
				 M17.089,23.208l0.407-0.477c0.549-0.643,0.552-1.267,0.117-1.638c-0.482-0.41-1.014-0.236-1.515,0.353
				c-0.233,0.273-0.354,0.444-0.413,0.563L17.089,23.208z M19.459,25.228c0.119-0.109,0.261-0.26,0.441-0.473
				c0.51-0.598,0.732-1.321,0.097-1.862c-0.595-0.508-1.275-0.202-1.826,0.44l-0.394,0.461L19.459,25.228z"></path>
			<path fill="#FFFFFF" d="M21.414,15.018c0.381-0.387,0.905-0.831,1.494-1.256c1.016-0.734,1.869-1.029,2.674-0.969
				c0.837,0.052,1.631,0.47,2.307,1.405c0.706,0.977,0.905,1.946,0.732,2.791c-0.18,0.887-0.859,1.763-1.915,2.526
				c-0.579,0.42-1.037,0.702-1.391,0.896L21.414,15.018z M25.766,18.944c0.154-0.074,0.363-0.225,0.565-0.371
				c1.294-0.924,1.541-2.193,0.534-3.585c-0.87-1.217-2.062-1.407-3.303-0.511c-0.313,0.228-0.522,0.416-0.636,0.549L25.766,18.944z
				"></path>
			<path fill="#FFFFFF" d="M33.333,12.017l-2.262,1.121l0.885,1.781l2.526-1.254l0.453,0.907L31.31,16.37l-3.008-6.061l3.49-1.732
				l0.452,0.909l-2.396,1.188l0.777,1.564l2.262-1.122L33.333,12.017z"></path>
			<path fill="#FFFFFF" d="M43.893,11.631c-0.378,0.253-1.143,0.658-2.013,0.862c-1.104,0.256-2.002,0.167-2.76-0.284
				c-0.712-0.423-1.254-1.215-1.476-2.214c-0.485-2.083,0.674-3.765,2.832-4.269c0.803-0.188,1.472-0.168,1.807-0.092l-0.037,1.029
				c-0.396-0.073-0.861-0.099-1.548,0.062c-1.394,0.325-2.177,1.385-1.818,2.919c0.348,1.497,1.466,2.175,2.821,1.858
				c0.424-0.1,0.729-0.231,0.867-0.347l-0.382-1.643l-1.152,0.269l-0.221-0.948l2.302-0.538L43.893,11.631z"></path>
			<path fill="#FFFFFF" d="M51.453,8.017c0.09,2.268-1.219,3.616-3.066,3.69c-1.889,0.076-3.138-1.33-3.218-3.317
				c-0.081-2.076,1.15-3.593,3.038-3.67C50.164,4.642,51.375,6.09,51.453,8.017z M46.461,8.317c0.056,1.375,0.782,2.441,1.955,2.394
				c1.182-0.047,1.803-1.178,1.747-2.593c-0.051-1.274-0.723-2.452-1.946-2.403C47.004,5.765,46.405,6.924,46.461,8.317z"></path>
			<path fill="#FFFFFF" d="M53.926,4.929l1.216,0.153l-0.715,5.689l2.732,0.343l-0.131,1.028l-3.946-0.496L53.926,4.929z"></path>
			<path fill="#FFFFFF" d="M60.168,5.91l3.729,1.021l-0.266,0.978L61.08,7.211l-0.494,1.802l2.378,0.651l-0.268,0.979l-2.377-0.65
				l-0.76,2.769l-1.178-0.321L60.168,5.91z"></path>
			<path fill="#FFFFFF" d="M70.692,14.057l-2.242-1.162l-0.915,1.766l2.508,1.299l-0.468,0.9l-3.592-1.862l3.114-6.009l3.461,1.795
				l-0.467,0.899l-2.376-1.23l-0.804,1.552l2.242,1.162L70.692,14.057z"></path>
			<path fill="#FFFFFF" d="M74.798,12.176l0.995,0.71l-3.33,4.668l2.238,1.599l-0.6,0.842l-3.235-2.311L74.798,12.176z"></path>
			<path fill="#FFFFFF" d="M81.984,18.027l2.622,2.843l-0.745,0.687l-1.794-1.944l-1.373,1.268l1.672,1.812L81.62,23.38
				l-1.672-1.813l-2.11,1.948l-0.828-0.899L81.984,18.027z"></path>
			<path fill="#FFFFFF" d="M82.58,26.182l-1.905,0.616l-0.719-1.038l6.789-2.082l0.889,1.283l-4.329,5.638l-0.747-1.078l1.232-1.589
				L82.58,26.182z M84.44,27.229l1.072-1.38c0.264-0.341,0.582-0.693,0.848-0.998l-0.012-0.018c-0.379,0.142-0.822,0.329-1.221,0.46
				l-1.667,0.522L84.44,27.229z"></path>
			<path fill="#FFFFFF" d="M89.975,28.987c0.268,0.379,0.611,0.974,0.911,1.614c0.41,0.873,0.542,1.535,0.386,2.103
				c-0.125,0.464-0.464,0.854-0.982,1.098c-0.793,0.371-1.576,0.092-2.052-0.379l-0.026,0.013c0.038,0.509-0.266,0.971-0.785,1.4
				c-0.675,0.547-1.31,1.043-1.486,1.281l-0.536-1.147c0.139-0.174,0.572-0.552,1.257-1.08c0.719-0.548,0.839-0.952,0.562-1.592
				l-0.26-0.559l-2.52,1.181l-0.515-1.098L89.975,28.987z M87.779,31.354l0.308,0.657c0.35,0.747,0.969,1.027,1.579,0.741
				c0.673-0.314,0.763-0.928,0.425-1.647c-0.164-0.351-0.297-0.563-0.375-0.658L87.779,31.354z"></path>
			<path fill="#FFFFFF" d="M91.292,42.243c-2.191,0.586-3.795-0.396-4.271-2.183c-0.488-1.825,0.611-3.353,2.532-3.867
				c2.007-0.537,3.756,0.335,4.242,2.159C94.302,40.246,93.154,41.746,91.292,42.243z M89.903,37.438
				c-1.328,0.354-2.208,1.301-1.905,2.435c0.305,1.142,1.544,1.5,2.912,1.136c1.231-0.329,2.234-1.246,1.918-2.428
				C92.515,37.408,91.252,37.077,89.903,37.438z"></path>
		</g>
		<g>
			<path fill="#FFFFFF" d="M17.64,70.899c0.395,0.375,0.847,0.895,1.283,1.475c0.754,0.999,1.063,1.847,1.018,2.654
				c-0.039,0.836-0.441,1.638-1.363,2.331c-0.964,0.725-1.932,0.941-2.779,0.783c-0.891-0.163-1.778-0.828-2.562-1.869
				c-0.43-0.571-0.72-1.024-0.918-1.373L17.64,70.899z M13.791,75.322c0.078,0.155,0.232,0.36,0.382,0.56
				c0.948,1.277,2.223,1.502,3.595,0.469c1.202-0.891,1.37-2.088,0.45-3.311c-0.233-0.311-0.424-0.516-0.559-0.628L13.791,75.322z"></path>
			<path fill="#FFFFFF" d="M22.104,81.581l-1.815-1.754l-1.383,1.43l2.031,1.961l-0.706,0.729l-2.909-2.812l4.705-4.868l2.801,2.709
				l-0.704,0.73l-1.922-1.859l-1.217,1.257l1.816,1.755L22.104,81.581z"></path>
			<path fill="#FFFFFF" d="M30.595,87.715c0.406-0.774,0.896-1.708,1.368-2.49l-0.026-0.016c-0.604,0.6-1.308,1.246-1.995,1.832
				l-2.322,2.037l-0.813-0.477l0.689-2.948c0.214-0.875,0.475-1.791,0.746-2.61l-0.017-0.01c-0.472,0.748-1.049,1.653-1.56,2.425
				l-1.504,2.272l-0.985-0.577l3.807-5.61l1.388,0.812l-0.62,2.79c-0.195,0.805-0.422,1.604-0.655,2.337l0.023,0.016
				c0.526-0.541,1.144-1.145,1.768-1.698l2.17-1.871l1.369,0.804l-3.086,6.031l-1.029-0.601L30.595,87.715z"></path>
			<path fill="#FFFFFF" d="M34.603,90.384l-1.182,1.617l-1.19-0.422l4.278-5.663l1.472,0.519l-0.202,7.105l-1.237-0.438l0.067-2.009
				L34.603,90.384z M36.723,90.144l0.059-1.747c0.017-0.433,0.065-0.903,0.103-1.306l-0.018-0.007
				c-0.226,0.336-0.476,0.749-0.723,1.086l-1.043,1.399L36.723,90.144z"></path>
			<path fill="#FFFFFF" d="M40.088,92.687c0.35,0.3,0.897,0.606,1.514,0.722c0.771,0.145,1.27-0.142,1.372-0.686
				c0.093-0.504-0.183-0.861-0.967-1.322c-1.013-0.598-1.598-1.31-1.42-2.268c0.203-1.086,1.257-1.748,2.685-1.48
				c0.713,0.132,1.209,0.389,1.52,0.628l-0.476,0.926c-0.211-0.175-0.636-0.447-1.25-0.562c-0.763-0.142-1.172,0.212-1.244,0.596
				c-0.096,0.514,0.241,0.822,1.057,1.33c1.062,0.648,1.512,1.335,1.333,2.291c-0.199,1.067-1.172,1.847-2.873,1.529
				c-0.693-0.129-1.38-0.461-1.702-0.745L40.088,92.687z"></path>
			<path fill="#FFFFFF" d="M46.374,88.332c0.44-0.064,1.048-0.099,1.873-0.066c0.894,0.036,1.541,0.253,1.954,0.632
				c0.383,0.347,0.62,0.889,0.596,1.521c-0.024,0.642-0.247,1.166-0.638,1.512c-0.504,0.472-1.28,0.672-2.143,0.638
				c-0.229-0.009-0.438-0.027-0.596-0.065l-0.102,2.549l-1.211-0.047L46.374,88.332z M47.46,91.529
				c0.148,0.047,0.347,0.064,0.594,0.075c0.914,0.035,1.489-0.393,1.52-1.186c0.029-0.752-0.471-1.175-1.314-1.209
				c-0.338-0.012-0.578,0.007-0.709,0.032L47.46,91.529z"></path>
			<path fill="#FFFFFF" d="M53.237,93.097l-0.383,1.967l-1.256,0.127l1.464-6.951l1.552-0.155l2.843,6.519l-1.309,0.129
				l-0.792-1.848L53.237,93.097z M55.056,91.978l-0.69-1.608c-0.169-0.395-0.326-0.845-0.463-1.224l-0.019,0.002
				c-0.062,0.399-0.112,0.878-0.191,1.291l-0.35,1.71L55.056,91.978z"></path>
			<path fill="#FFFFFF" d="M57.856,87.587l1.184-0.306l1.429,5.554l2.664-0.686l0.258,1.001l-3.85,0.99L57.856,87.587z"></path>
			<path fill="#FFFFFF" d="M69.159,87.132c0.888,2.089,0.141,3.814-1.561,4.537c-1.738,0.738-3.406-0.134-4.184-1.965
				c-0.812-1.911-0.198-3.767,1.539-4.505C66.757,84.433,68.404,85.357,69.159,87.132z M64.597,89.183
				c0.538,1.265,1.597,2.003,2.677,1.544c1.089-0.462,1.27-1.739,0.715-3.043c-0.499-1.173-1.548-2.038-2.672-1.56
				C64.2,86.599,64.052,87.896,64.597,89.183z"></path>
			<path fill="#FFFFFF" d="M75.777,83.668c-0.527-0.697-1.164-1.537-1.672-2.296l-0.026,0.017c0.286,0.803,0.574,1.713,0.812,2.585
				l0.855,2.967l-0.779,0.535l-2.374-1.875c-0.7-0.566-1.421-1.192-2.047-1.786l-0.015,0.012c0.476,0.744,1.051,1.651,1.532,2.442
				l1.417,2.326l-0.941,0.646l-3.463-5.83l1.328-0.91l2.262,1.746c0.645,0.518,1.271,1.062,1.837,1.587l0.023-0.017
				c-0.267-0.704-0.55-1.522-0.786-2.321l-0.772-2.757l1.312-0.901l4.148,5.356l-0.982,0.676L75.777,83.668z"></path>
			<path fill="#FFFFFF" d="M79.888,81.187l0.956,1.761l-0.888,0.896l-3.298-6.289l1.099-1.109l6.34,3.219l-0.922,0.933l-1.791-0.921
				L79.888,81.187z M80.575,79.166l-1.556-0.797c-0.384-0.197-0.789-0.446-1.136-0.651l-0.016,0.014
				c0.21,0.348,0.474,0.749,0.676,1.118l0.819,1.54L80.575,79.166z"></path>
			<path fill="#FFFFFF" d="M84.311,77.222c0.421-0.184,0.933-0.549,1.302-1.056c0.462-0.634,0.418-1.206-0.028-1.531
				c-0.414-0.302-0.855-0.205-1.61,0.303c-0.973,0.657-1.868,0.881-2.655,0.308c-0.895-0.648-1.037-1.885-0.185-3.058
				c0.427-0.587,0.871-0.928,1.223-1.103l0.628,0.825c-0.246,0.116-0.675,0.382-1.042,0.889c-0.456,0.628-0.314,1.147,0.004,1.379
				c0.421,0.308,0.845,0.136,1.653-0.382c1.043-0.681,1.853-0.791,2.641-0.22c0.877,0.64,1.162,1.852,0.146,3.252
				c-0.414,0.571-1.01,1.048-1.404,1.214L84.311,77.222z"></path>
		</g>
		<path fill="#FDC300" d="M49.999,0.499c-27.338,0-49.5,22.164-49.5,49.502c0,27.34,22.162,49.505,49.5,49.505
			s49.5-22.165,49.5-49.505C99.499,22.663,77.337,0.499,49.999,0.499z M49.999,98.162c-26.555,0-48.158-21.605-48.158-48.161
			s21.604-48.16,48.158-48.16s48.159,21.604,48.159,48.16S76.554,98.162,49.999,98.162z"></path>
		<g>
			<g>
				<path fill="#1A1A18" d="M41.441,27.479c0-1.512,1.743-2.737,3.896-2.737c2.151,0,3.897,1.226,3.897,2.737
					c0,0.285-0.062,0.558-0.178,0.817c0.382-0.473,0.602-1.021,0.602-1.61c0-0.934-0.556-1.774-1.436-2.354v-2.377
					c0-0.708-0.875-1.344-1.84-1.643c-0.019-0.368-0.329-0.674-0.749-0.763v-1.845h-0.506v1.845c-0.4,0.085-0.703,0.367-0.746,0.714
					c-1.052,0.294-2.068,1.029-2.068,1.691c0,0.622,0,1.852,0,2.473c-0.8,0.574-1.294,1.372-1.294,2.258
					c0,0.589,0.218,1.138,0.598,1.61C41.505,28.037,41.441,27.765,41.441,27.479z M47.288,21.398
					c0.18,0.119,0.343,0.253,0.486,0.403v1.323c-0.149-0.111-0.312-0.212-0.486-0.3V21.398z M45.204,20.837
					c0.043-0.003,0.088-0.004,0.132-0.004c0.191,0,0.377,0.016,0.559,0.041v1.535c-0.182-0.021-0.368-0.033-0.559-0.033
					c-0.044,0-0.089,0.002-0.132,0.003V20.837z M46.343,20.969c0.202,0.059,0.396,0.132,0.58,0.221v1.473
					c-0.186-0.071-0.379-0.131-0.58-0.176V20.969z M44.034,21.067c0.252-0.096,0.521-0.163,0.804-0.202V22.4
					c-0.282,0.031-0.55,0.088-0.804,0.165V21.067z M43.08,21.628c0.173-0.148,0.369-0.28,0.58-0.392v1.461
					c-0.208,0.087-0.401,0.188-0.58,0.302V21.628z M45.337,22.996c1.204,0,2.255,0.524,2.842,1.309
					c-0.76-0.486-1.754-0.783-2.842-0.783c-1.09,0-2.081,0.297-2.84,0.783C43.083,23.521,44.134,22.996,45.337,22.996z"></path>
				<g>
					<path fill="none" d="M40.46,55.114l-0.035,0.759c0,0,1.26-0.965,3.625-1.729C42.013,54.199,40.46,55.114,40.46,55.114z"></path>
					<ellipse fill="none" cx="45.241" cy="27.226" rx="0.654" ry="0.539"></ellipse>
					<path fill="none" d="M44.931,35.733c0,0,0.478-1.334,1.237-2.383c-0.801,0.037-1.237,0.16-1.237,0.16V35.733z"></path>
					<path fill="none" d="M44.891,54.464c0,0,0.389-1.082,1.001-1.931c-0.648,0.03-1.001,0.13-1.001,0.13V54.464z"></path>
					<path fill="none" d="M44.93,44.941c0,0,0.43-1.201,1.112-2.145c-0.72,0.033-1.112,0.145-1.112,0.145V44.941z"></path>
					<path d="M47.476,56.549V26.896c0,0,0.823,0.159,0.973,1.479c0.118,1.054,1.412,20.933,1.924,28.818
						c0.206,0.056,0.411,0.112,0.614,0.172l-2.015-29.383c-0.093-1.644-1.629-2.737-3.635-2.737c-2.009,0-3.547,1.104-3.634,2.737
						l-0.183,3.973c0.613-0.244,1.515-0.495,2.521-0.443c-1.104,0.352-1.966,0.781-2.552,1.127l-0.114,2.437
						c0.646-0.277,1.653-0.608,2.823-0.635c-1.29,0.44-2.248,0.947-2.853,1.315l-0.106,2.32c0.648-0.26,1.65-0.568,2.81-0.598
						c-1.277,0.411-2.231,0.882-2.839,1.228l-0.104,2.27c0.64-0.269,1.699-0.62,2.943-0.651c-1.376,0.442-2.375,0.954-2.974,1.306
						l-0.11,2.392c0.618-0.274,1.745-0.681,3.084-0.716c-1.488,0.479-2.54,1.04-3.114,1.389l-0.097,2.095
						c0.582-0.271,1.772-0.737,3.211-0.775c-1.608,0.52-2.703,1.133-3.242,1.471l-0.095,2.076c0.52-0.257,1.787-0.794,3.337-0.835
						c-1.748,0.562-2.894,1.238-3.371,1.55l-0.094,2.059c0.408-0.214,1.767-0.854,3.465-0.899c-1.93,0.624-3.124,1.379-3.498,1.637
						l-0.141,3.057C42.859,55.983,45.232,56.154,47.476,56.549z M44.891,54.464v-1.801c0,0,0.353-0.1,1.001-0.13
						C45.279,53.382,44.891,54.464,44.891,54.464z M44.93,44.941v-2c0,0,0.393-0.111,1.112-0.145
						C45.359,43.74,44.93,44.941,44.93,44.941z M44.931,35.733v-2.223c0,0,0.437-0.123,1.237-0.16
						C45.408,34.399,44.931,35.733,44.931,35.733z M45.241,26.687c0.36,0,0.654,0.243,0.654,0.539c0,0.299-0.294,0.539-0.654,0.539
						s-0.655-0.24-0.655-0.539C44.586,26.93,44.881,26.687,45.241,26.687z M40.46,55.114c0,0,1.553-0.915,3.59-0.97
						c-2.365,0.764-3.625,1.729-3.625,1.729L40.46,55.114z"></path>
				</g>
			</g>
			<path fill="#FDC300" d="M58.794,60.745c-8.468-5.074-24.951-9.165-38.682,5.43c0.07,0.129,0.145,0.257,0.216,0.387
				C33.384,58.145,47.312,57.746,58.794,60.745z"></path>
			<path fill="#0089D0" d="M20.328,66.561c0.056,0.101,0.111,0.202,0.168,0.302c22.735-7.932,46.657-2.48,56.741,3.453
				c0.099-0.133,0.194-0.266,0.291-0.4C66.29,60.786,42.098,52.525,20.328,66.561z"></path>
			<path fill="#76B828" d="M22.296,69.676c0.535,0.753,1.104,1.481,1.697,2.188c2.427-1.079,8.142-3.313,15.276-4.024
				c-6.412,2.048-10.999,4.188-13.682,5.598c0.675,0.578,1.378,1.125,2.108,1.643c2.575-1.092,7.666-2.934,13.892-3.555
				c-5.354,1.711-9.366,3.486-11.99,4.802c0.934,0.562,1.905,1.078,2.906,1.551c2.638-1.083,6.565-2.404,11.19-3.035
				c-3.795,1.366-6.857,2.743-9.183,3.911c13.562,5.411,31.632,3.074,42.18-7.727c0.187-0.237,0.37-0.478,0.551-0.719
				C66.98,63.837,40.771,60.823,22.296,69.676z"></path>
			<g>
				<path fill-rule="evenodd" clip-rule="evenodd" fill="#FFFFFF" d="M59.197,73.475c-2.388,0-4.322-0.662-4.322-1.479
					c0-0.818,1.935-1.481,4.322-1.481c2.385,0,4.319,0.663,4.319,1.481C63.517,72.812,61.582,73.475,59.197,73.475z"></path>
				<path fill-rule="evenodd" clip-rule="evenodd" fill="#E30018" d="M60.847,42.26c7.071-1.471,10.957,3.886,14.068-1.679
					c-4.517,0.894-8.326-8.614-14.729-7.128L60.847,42.26z"></path>
				<path fill-rule="evenodd" clip-rule="evenodd" fill="#1A1A18" d="M55.094,72.46c0.569-0.591,2.192-1.016,4.104-1.016
					s3.527,0.425,4.1,1.016c0.142-0.147,0.22-0.302,0.22-0.465c0-0.818-1.935-1.481-4.319-1.481c-2.388,0-4.322,0.663-4.322,1.481
					C54.875,72.158,54.952,72.312,55.094,72.46z"></path>
				<g>
					<path fill-rule="evenodd" clip-rule="evenodd" fill="#1A1A18" d="M66.411,68.046c-1.353,0-2.449,1.098-2.449,2.453
						c0,1.354,1.097,2.45,2.449,2.45c1.354,0,2.451-1.097,2.451-2.45C68.862,69.144,67.766,68.046,66.411,68.046z"></path>
					<circle fill="#FFFFFF" cx="66.411" cy="70.499" r="2.319"></circle>
					<path fill-rule="evenodd" clip-rule="evenodd" fill="#1A1A18" d="M66.304,68.233c-0.004-0.002-0.012,0.002-0.014,0.007
						c-0.021,0.036-0.117,0.072-0.229,0.076c-0.012,0-0.024,0-0.034,0c-0.009,0-0.016,0.006-0.019,0.012
						c-0.001,0.009,0.005,0.016,0.014,0.02c0.032,0.008,0.074,0.013,0.124,0.012c0.122-0.006,0.223-0.045,0.223-0.083
						C66.369,68.257,66.344,68.242,66.304,68.233z"></path>
					<path fill-rule="evenodd" clip-rule="evenodd" fill="#1A1A18" d="M66.858,68.288c-0.004-0.007-0.011-0.015-0.02-0.021
						c-0.013-0.01-0.028-0.007-0.038,0.004c-0.024,0.027-0.096,0.048-0.192,0.045c-0.009,0-0.019,0.007-0.021,0.016
						c0,0.011,0.008,0.021,0.019,0.021c0.02,0.002,0.041,0.004,0.063,0.006C66.79,68.363,66.873,68.326,66.858,68.288z"></path>
					<path fill-rule="evenodd" clip-rule="evenodd" fill="#1A1A18" d="M65.46,68.467c-0.01-0.001-0.019,0.002-0.026,0.009
						s-0.012,0.017-0.012,0.026c0.001,0.011-0.001,0.019-0.003,0.029c-0.016,0.057-0.082,0.118-0.163,0.158
						c-0.013,0.006-0.02,0.021-0.014,0.035c0.003,0.014,0.018,0.024,0.034,0.021c0.116-0.021,0.239-0.109,0.26-0.185
						C65.553,68.511,65.52,68.476,65.46,68.467z"></path>
					<path fill-rule="evenodd" clip-rule="evenodd" fill="#1A1A18" d="M66.004,68.424c-0.005-0.003-0.01-0.001-0.014,0.004
						s-0.007,0.012-0.003,0.018c0.003,0.01,0.006,0.023,0.003,0.037c-0.007,0.062-0.093,0.131-0.201,0.158
						c-0.01,0.002-0.016,0.012-0.014,0.02c0.001,0.01,0.009,0.018,0.018,0.018s0.017-0.001,0.025-0.003
						c0.135-0.011,0.254-0.087,0.263-0.159C66.087,68.473,66.056,68.441,66.004,68.424z"></path>
					<path fill-rule="evenodd" clip-rule="evenodd" fill="#1A1A18" d="M66.645,68.513c-0.001-0.022-0.013-0.041-0.029-0.058
						c-0.007-0.005-0.015-0.007-0.022-0.003c-0.008,0.003-0.013,0.012-0.011,0.021c0.001,0.002,0.001,0.004,0.001,0.006
						c0.007,0.058-0.055,0.114-0.15,0.139c-0.006,0.001-0.016,0.001-0.027,0.004c-0.008,0-0.015,0.007-0.014,0.015
						c0,0.01,0.008,0.017,0.015,0.017l0,0C66.548,68.652,66.653,68.584,66.645,68.513z"></path>
					<path fill-rule="evenodd" clip-rule="evenodd" fill="#1A1A18" d="M65.041,68.856c-0.008,0.002-0.016,0.006-0.021,0.015
						c-0.003,0.009-0.003,0.02,0.002,0.027c0.016,0.025,0.02,0.062,0.012,0.104c-0.016,0.078-0.074,0.16-0.146,0.211
						c-0.008,0.007-0.011,0.019-0.008,0.026c0.004,0.011,0.015,0.018,0.024,0.017c0.005-0.002,0.012-0.002,0.019-0.003
						c0.11-0.023,0.225-0.142,0.249-0.251C65.191,68.903,65.131,68.848,65.041,68.856z"></path>
					<path fill-rule="evenodd" clip-rule="evenodd" fill="#1A1A18" d="M65.641,68.781c-0.014-0.005-0.026,0-0.033,0.01
						c-0.009,0.009-0.011,0.023-0.002,0.034c0.016,0.027,0.023,0.062,0.019,0.101c-0.008,0.071-0.06,0.142-0.13,0.19
						c-0.009,0.006-0.012,0.018-0.008,0.027c0.006,0.011,0.018,0.016,0.028,0.013c0.108-0.036,0.206-0.13,0.218-0.227
						C65.742,68.858,65.705,68.804,65.641,68.781z"></path>
					<path fill-rule="evenodd" clip-rule="evenodd" fill="#1A1A18" d="M66.278,68.766c-0.009-0.006-0.02-0.005-0.027,0.004
						c-0.009,0.007-0.009,0.02-0.003,0.027c0.021,0.028,0.034,0.062,0.034,0.1c0,0.054-0.029,0.106-0.076,0.148
						c-0.008,0.008-0.009,0.021-0.005,0.028c0.008,0.01,0.021,0.014,0.03,0.008c0.074-0.043,0.126-0.109,0.126-0.179
						C66.357,68.844,66.327,68.798,66.278,68.766z"></path>
					<path fill-rule="evenodd" clip-rule="evenodd" fill="#1A1A18" d="M64.688,69.39c-0.007,0.001-0.014,0.004-0.02,0.007
						c-0.011,0.005-0.021,0.014-0.023,0.027c-0.003,0.013-0.001,0.025,0.006,0.036c0.025,0.035,0.038,0.089,0.029,0.155
						c-0.009,0.069-0.037,0.139-0.077,0.192c-0.007,0.009-0.007,0.02-0.002,0.029c0.006,0.011,0.017,0.015,0.028,0.014l0,0
						c0.092-0.017,0.189-0.143,0.206-0.272C64.852,69.444,64.78,69.365,64.688,69.39z"></path>
					<path fill-rule="evenodd" clip-rule="evenodd" fill="#1A1A18" d="M65.159,69.293c-0.009,0.001-0.018,0.009-0.019,0.018
						c-0.002,0.01,0.002,0.02,0.011,0.025c0.062,0.037,0.098,0.109,0.091,0.204c-0.006,0.068-0.036,0.136-0.081,0.188
						c-0.008,0.008-0.009,0.021,0,0.027c0.007,0.01,0.018,0.013,0.027,0.008c0.096-0.046,0.17-0.151,0.181-0.258
						C65.381,69.365,65.283,69.274,65.159,69.293z"></path>
					<path fill-rule="evenodd" clip-rule="evenodd" fill="#1A1A18" d="M65.751,69.229c-0.007,0.001-0.013,0.006-0.014,0.012
						c-0.001,0.008,0.004,0.014,0.011,0.017c0.102,0.031,0.173,0.121,0.17,0.237c-0.003,0.045-0.015,0.085-0.033,0.124
						c-0.007,0.013-0.004,0.027,0.007,0.033c0.01,0.009,0.025,0.008,0.034-0.002c0.051-0.05,0.082-0.116,0.083-0.185
						C66.016,69.319,65.897,69.219,65.751,69.229z"></path>
					<path fill-rule="evenodd" clip-rule="evenodd" fill="#1A1A18" d="M64.921,69.915c-0.027,0.004-0.053,0.013-0.077,0.027
						c-0.007,0.006-0.011,0.015-0.01,0.024c0,0.009,0.005,0.019,0.013,0.022c0.08,0.033,0.134,0.131,0.129,0.252
						c-0.001,0.051-0.013,0.099-0.034,0.141c-0.004,0.012-0.002,0.023,0.007,0.031c0.01,0.009,0.021,0.011,0.031,0.004
						c0.077-0.044,0.138-0.142,0.141-0.257C65.126,70.011,65.031,69.9,64.921,69.915z"></path>
					<path fill-rule="evenodd" clip-rule="evenodd" fill="#1A1A18" d="M65.392,69.869c-0.024,0.001-0.048,0.005-0.07,0.014
						c-0.01,0.004-0.017,0.015-0.016,0.025c0.002,0.012,0.009,0.021,0.018,0.021c0.126,0.023,0.219,0.141,0.215,0.29
						c0,0.038-0.009,0.075-0.021,0.111c-0.002,0.011,0,0.022,0.009,0.028c0.01,0.006,0.024,0.005,0.03-0.003
						c0.058-0.054,0.094-0.131,0.096-0.216C65.654,69.979,65.534,69.859,65.392,69.869z"></path>
					<path fill-rule="evenodd" clip-rule="evenodd" fill="#1A1A18" d="M66.058,69.845c-0.036,0-0.068,0.006-0.1,0.018
						c-0.01,0.004-0.016,0.012-0.013,0.021c0.002,0.01,0.01,0.017,0.019,0.016c0.17-0.004,0.312,0.134,0.312,0.31
						c0,0.017-0.003,0.033-0.005,0.049c-0.002,0.011,0.005,0.022,0.017,0.025c0.009,0.004,0.021,0,0.026-0.011
						c0.023-0.043,0.037-0.09,0.037-0.141C66.351,69.967,66.216,69.841,66.058,69.845z"></path>
					<path fill-rule="evenodd" clip-rule="evenodd" fill="#1A1A18" d="M68.55,70.317c0.001,0.007,0.007,0.011,0.015,0.011
						c0.008-0.001,0.014-0.007,0.014-0.014l0,0c-0.005-0.109,0.021-0.192,0.055-0.203c0.006-0.002,0.011-0.005,0.013-0.012
						c0.003-0.005,0.003-0.01,0.001-0.015c-0.012-0.022-0.023-0.037-0.036-0.043c-0.038-0.018-0.076,0.065-0.07,0.188
						C68.541,70.26,68.545,70.29,68.55,70.317z"></path>
					<path fill-rule="evenodd" clip-rule="evenodd" fill="#1A1A18" d="M65.06,70.604c-0.047,0-0.088,0.017-0.123,0.04
						c-0.009,0.01-0.015,0.025-0.011,0.041c0.003,0.015,0.013,0.024,0.028,0.028c0.125,0.024,0.223,0.156,0.227,0.303
						c0.001,0.022-0.001,0.045-0.004,0.065c-0.002,0.012,0.002,0.024,0.012,0.029c0.011,0.005,0.022,0.005,0.031-0.002
						c0.057-0.048,0.094-0.126,0.092-0.217C65.308,70.736,65.188,70.604,65.06,70.604z"></path>
					<path fill-rule="evenodd" clip-rule="evenodd" fill="#1A1A18" d="M65.702,70.547c-0.066,0-0.125,0.023-0.172,0.063
						c-0.01,0.008-0.013,0.021-0.009,0.03c0.006,0.011,0.019,0.018,0.029,0.016c0.014-0.002,0.029-0.004,0.042-0.004
						c0.164,0,0.306,0.146,0.308,0.32c0,0.006,0,0.013,0,0.019c0,0.013,0.005,0.023,0.018,0.027c0.011,0.004,0.022-0.001,0.03-0.01
						c0.03-0.047,0.048-0.101,0.048-0.163C65.994,70.683,65.859,70.547,65.702,70.547z"></path>
					<path fill-rule="evenodd" clip-rule="evenodd" fill="#1A1A18" d="M66.335,70.654c0.164,0,0.3,0.127,0.312,0.287
						c0.001,0.009,0.01,0.018,0.021,0.019c0.009,0.002,0.018-0.005,0.021-0.015c0.068-0.181-0.064-0.396-0.282-0.396
						c-0.076,0-0.146,0.029-0.2,0.08c-0.009,0.008-0.011,0.02-0.006,0.031c0.007,0.01,0.021,0.015,0.033,0.012
						C66.267,70.66,66.3,70.654,66.335,70.654z"></path>
					<path fill-rule="evenodd" clip-rule="evenodd" fill="#1A1A18" d="M67.077,70.652c0.122,0,0.222,0.079,0.265,0.185
						c0.005,0.01,0.014,0.016,0.024,0.014c0.012-0.001,0.019-0.011,0.02-0.02c0.001-0.151-0.112-0.284-0.271-0.284
						c-0.097,0-0.186,0.053-0.239,0.13c-0.006,0.009-0.005,0.021,0.003,0.029c0.007,0.008,0.02,0.009,0.029,0.002
						C66.958,70.673,67.017,70.652,67.077,70.652z"></path>
					<path fill-rule="evenodd" clip-rule="evenodd" fill="#1A1A18" d="M67.733,70.79c0.074,0,0.138,0.041,0.179,0.103
						c0.005,0.009,0.015,0.012,0.022,0.009c0.007-0.004,0.012-0.014,0.011-0.023c-0.019-0.11-0.102-0.193-0.208-0.193
						c-0.1,0-0.192,0.077-0.232,0.188c-0.005,0.009,0.001,0.021,0.01,0.025c0.011,0.006,0.021,0.004,0.028-0.006
						C67.593,70.83,67.66,70.79,67.733,70.79z"></path>
					<path fill-rule="evenodd" clip-rule="evenodd" fill="#1A1A18" d="M68.235,70.584c0.02,0,0.039,0.005,0.056,0.016
						c0.011,0.004,0.025,0.003,0.032-0.006c0.01-0.009,0.012-0.023,0.006-0.034c-0.023-0.049-0.064-0.081-0.113-0.081
						c-0.092,0-0.182,0.121-0.186,0.265c0,0,0,0.002,0,0.003c-0.001,0.008,0.004,0.016,0.012,0.017
						c0.008,0.002,0.016-0.002,0.019-0.012C68.096,70.652,68.165,70.584,68.235,70.584z"></path>
					<path fill-rule="evenodd" clip-rule="evenodd" fill="#1A1A18" d="M68.603,70.639L68.603,70.639c0.01,0,0.017-0.003,0.021-0.012
						c0.006-0.008,0.009-0.017,0.005-0.025c-0.014-0.042-0.034-0.067-0.063-0.067c-0.053,0-0.11,0.105-0.115,0.236
						c0,0.016,0,0.031,0,0.046c0.001,0.01,0.009,0.018,0.02,0.018c0.01,0.001,0.017-0.006,0.019-0.016
						C68.509,70.715,68.556,70.639,68.603,70.639z"></path>
					<path fill-rule="evenodd" clip-rule="evenodd" fill="#1A1A18" d="M65.681,71.502c-0.01-0.145-0.141-0.274-0.282-0.283
						c-0.086-0.004-0.156,0.032-0.193,0.095c-0.008,0.01-0.008,0.026,0,0.038c0.007,0.013,0.02,0.02,0.034,0.018
						c0.154-0.01,0.314,0.129,0.329,0.296c0.001,0.008,0.007,0.018,0.015,0.021c0.007,0.003,0.017,0.002,0.023-0.003
						C65.654,71.642,65.686,71.579,65.681,71.502z"></path>
					<path fill-rule="evenodd" clip-rule="evenodd" fill="#1A1A18" d="M66.059,71.248c-0.118-0.003-0.214,0.061-0.253,0.149
						c-0.004,0.009-0.001,0.02,0.004,0.024c0.007,0.007,0.017,0.009,0.025,0.005c0.04-0.016,0.084-0.026,0.133-0.026
						c0.15,0.004,0.277,0.113,0.304,0.246c0.002,0.009,0.009,0.016,0.019,0.018c0.008,0.002,0.016-0.002,0.021-0.008
						c0.024-0.031,0.041-0.067,0.041-0.134C66.353,71.379,66.219,71.251,66.059,71.248z"></path>
					<path fill-rule="evenodd" clip-rule="evenodd" fill="#1A1A18" d="M66.76,71.288c-0.13,0.002-0.242,0.085-0.28,0.193
						c-0.004,0.009,0,0.021,0.006,0.025c0.009,0.007,0.021,0.007,0.028,0c0.054-0.04,0.12-0.064,0.189-0.066
						c0.129-0.003,0.234,0.073,0.271,0.174c0.003,0.009,0.011,0.015,0.021,0.015s0.02-0.006,0.021-0.015
						c0.008-0.021,0.014-0.043,0.014-0.066C67.041,71.406,66.919,71.285,66.76,71.288z"></path>
					<path fill-rule="evenodd" clip-rule="evenodd" fill="#1A1A18" d="M67.419,71.219c-0.13,0.008-0.252,0.116-0.276,0.246
						c-0.002,0.01,0.003,0.021,0.012,0.025c0.008,0.004,0.02,0.002,0.026-0.005c0.056-0.065,0.135-0.109,0.217-0.115
						c0.097-0.006,0.173,0.041,0.211,0.112c0.003,0.007,0.011,0.01,0.018,0.009s0.011-0.005,0.014-0.013
						C67.667,71.331,67.568,71.21,67.419,71.219z"></path>
					<path fill-rule="evenodd" clip-rule="evenodd" fill="#1A1A18" d="M67.976,71.314c0.055-0.007,0.098,0.009,0.128,0.043
						c0.004,0.007,0.011,0.008,0.017,0.006s0.01-0.009,0.01-0.014c0.006-0.115-0.058-0.197-0.161-0.185
						c-0.111,0.015-0.224,0.144-0.236,0.279c-0.002,0.015-0.002,0.029-0.002,0.044c0,0.006,0.005,0.014,0.012,0.015
						c0.007,0.002,0.015-0.002,0.019-0.01C67.807,71.398,67.893,71.322,67.976,71.314z"></path>
					<path fill-rule="evenodd" clip-rule="evenodd" fill="#1A1A18" d="M68.434,71.238c0.013-0.004,0.023-0.004,0.034,0
						c0.011,0.001,0.019-0.001,0.026-0.009c0.008-0.006,0.013-0.014,0.012-0.023c-0.008-0.077-0.044-0.124-0.098-0.11
						c-0.075,0.018-0.159,0.137-0.175,0.265c-0.005,0.035-0.003,0.062,0.002,0.09c0.002,0.007,0.009,0.013,0.015,0.013
						c0.008,0,0.017-0.005,0.018-0.011C68.301,71.345,68.371,71.252,68.434,71.238z"></path>
					<path fill-rule="evenodd" clip-rule="evenodd" fill="#1A1A18" d="M66.062,72.031c-0.007-0.111-0.136-0.22-0.282-0.23
						c-0.139-0.008-0.239,0.073-0.227,0.183c0,0.007,0.003,0.013,0.01,0.015c0.005,0.003,0.013,0.004,0.02,0.003
						c0.027-0.005,0.058-0.008,0.091-0.005c0.12,0.006,0.229,0.081,0.274,0.169c0.002,0.006,0.008,0.009,0.014,0.011
						c0.004,0.003,0.011,0.001,0.018-0.002C66.031,72.146,66.064,72.095,66.062,72.031z"></path>
					<path fill-rule="evenodd" clip-rule="evenodd" fill="#1A1A18" d="M66.429,71.824c-0.153,0-0.271,0.101-0.265,0.21
						c0,0.002,0,0.003,0,0.005c0,0.008,0.004,0.016,0.011,0.02s0.017,0.004,0.022,0c0.044-0.024,0.099-0.04,0.158-0.04
						c0.112,0,0.207,0.052,0.251,0.122c0.003,0.008,0.01,0.01,0.017,0.013c0.007,0,0.015-0.003,0.019-0.008
						c0.031-0.031,0.048-0.067,0.052-0.111C66.701,71.925,66.581,71.824,66.429,71.824z"></path>
					<path fill-rule="evenodd" clip-rule="evenodd" fill="#1A1A18" d="M67.058,71.941c-0.162,0.013-0.3,0.144-0.281,0.263
						c0.001,0.009,0.006,0.015,0.014,0.018c0.009,0.004,0.018,0.002,0.023-0.003c0.056-0.046,0.129-0.079,0.205-0.083
						c0.087-0.007,0.158,0.022,0.199,0.069c0.005,0.004,0.012,0.008,0.02,0.008s0.015-0.006,0.019-0.01
						C67.339,72.07,67.24,71.93,67.058,71.941z"></path>
					<path fill-rule="evenodd" clip-rule="evenodd" fill="#1A1A18" d="M67.633,71.903c0.057-0.007,0.103,0.001,0.134,0.027
						c0.005,0.003,0.014,0.004,0.021,0.003c0.008-0.002,0.013-0.007,0.015-0.014c0.052-0.122-0.02-0.227-0.159-0.204
						c-0.124,0.019-0.249,0.133-0.268,0.244c-0.005,0.024-0.004,0.045,0.003,0.066c0.002,0.008,0.009,0.014,0.017,0.017
						c0.008,0,0.018-0.003,0.023-0.009C67.471,71.97,67.552,71.917,67.633,71.903z"></path>
					<path fill-rule="evenodd" clip-rule="evenodd" fill="#1A1A18" d="M67.896,72.043c0.004,0.008,0.011,0.013,0.019,0.013
						c0.011,0.001,0.018-0.004,0.021-0.011c0.048-0.079,0.124-0.147,0.193-0.169c0.027-0.008,0.05-0.008,0.069-0.001
						c0.006,0.001,0.012,0.001,0.017-0.002c0.006-0.004,0.009-0.008,0.01-0.014c0.002-0.006,0.003-0.012,0.005-0.018
						c0.023-0.104-0.021-0.174-0.114-0.147c-0.093,0.025-0.199,0.143-0.225,0.252C67.88,71.987,67.883,72.019,67.896,72.043z"></path>
					<path fill-rule="evenodd" clip-rule="evenodd" fill="#1A1A18" d="M67.884,72.17c-0.118-0.04-0.318,0.124-0.351,0.188
						c-0.016,0.029-0.055,0.039-0.086,0.007c-0.103-0.103-0.358-0.012-0.414,0.081c-0.022,0.037-0.086,0.046-0.115,0.003
						c-0.083-0.135-0.345-0.072-0.433-0.002c-0.039,0.034-0.112,0.038-0.148-0.021c-0.069-0.112-0.265-0.15-0.389-0.098
						c-0.041,0.016-0.146,0.027-0.188-0.021c-0.059-0.073-0.149-0.101-0.218-0.111c-0.1-0.016-0.124-0.061-0.117-0.129
						c0.016-0.116-0.089-0.289-0.249-0.311c-0.078-0.013-0.146-0.107-0.123-0.188c0.054-0.156-0.121-0.351-0.249-0.359
						c-0.067-0.006-0.128-0.124-0.088-0.214c0.061-0.146-0.052-0.377-0.151-0.413c-0.059-0.022-0.131-0.113-0.069-0.215
						c0.077-0.127,0.079-0.305-0.002-0.387c-0.07-0.07-0.104-0.106-0.077-0.191c0.021-0.066,0.05-0.127,0.023-0.222
						c-0.015-0.054,0.02-0.164,0.057-0.202c0.292-0.311,0.111-0.274,0.201-0.427c0.061-0.102,0.082-0.214,0.132-0.313
						c-0.532,0.45-0.868,1.122-0.868,1.873c0,1.354,1.097,2.45,2.449,2.45c0.779,0,1.473-0.364,1.921-0.931
						C68.188,72.118,68.006,72.207,67.884,72.17z"></path>
				</g>
				<g>
					<path fill-rule="evenodd" clip-rule="evenodd" fill="#1A1A18" d="M59.197,73.475c0.146,0,0.292-0.004,0.435-0.009l0.044-38.53
						l-0.003-0.001l0.003-1.909c0-0.392-0.242-0.791-0.54-0.891c-0.047-0.015-0.095-0.023-0.137-0.023
						c-0.259,0-0.446,0.249-0.446,0.595l-0.046,40.749C58.732,73.468,58.961,73.475,59.197,73.475z"></path>
				</g>
			</g>
		</g>
		<g>
			<path fill="#FFFFFF" d="M45.381,76.602h-0.012l-0.675,0.339l-0.118-0.526l0.895-0.442h0.584v3.681h-0.674V76.602z"></path>
			<path fill="#FFFFFF" d="M47.378,79.154c0.107,0.011,0.215,0.006,0.385-0.01c0.271-0.023,0.545-0.119,0.747-0.284
				c0.238-0.192,0.402-0.471,0.472-0.815l-0.011-0.007c-0.188,0.211-0.448,0.33-0.806,0.33c-0.64,0-1.114-0.466-1.114-1.146
				c0-0.699,0.542-1.312,1.332-1.312c0.854,0,1.311,0.673,1.311,1.568c0,0.788-0.26,1.348-0.639,1.71
				c-0.322,0.301-0.764,0.47-1.258,0.504c-0.158,0.018-0.317,0.018-0.419,0.012V79.154z M47.741,77.185
				c0.005,0.379,0.221,0.674,0.606,0.674c0.283,0,0.486-0.131,0.594-0.306c0.024-0.045,0.04-0.102,0.04-0.198
				c0.004-0.499-0.182-0.928-0.634-0.928C47.996,76.427,47.741,76.736,47.741,77.185z"></path>
			<path fill="#FFFFFF" d="M50.525,79.154c0.108,0.011,0.215,0.006,0.387-0.01c0.271-0.023,0.543-0.119,0.747-0.284
				c0.237-0.192,0.4-0.471,0.469-0.815l-0.012-0.007c-0.186,0.211-0.446,0.33-0.803,0.33c-0.641,0-1.115-0.466-1.115-1.146
				c0-0.699,0.542-1.312,1.33-1.312c0.855,0,1.313,0.673,1.313,1.568c0,0.788-0.261,1.348-0.64,1.71
				c-0.323,0.301-0.767,0.47-1.258,0.504c-0.158,0.018-0.316,0.018-0.419,0.012V79.154z M50.889,77.185
				c0.005,0.379,0.222,0.674,0.606,0.674c0.282,0,0.485-0.131,0.593-0.306c0.023-0.045,0.04-0.102,0.04-0.198
				c0.007-0.499-0.181-0.928-0.633-0.928C51.144,76.427,50.889,76.736,50.889,77.185z"></path>
			<path fill="#FFFFFF" d="M54.258,76.602h-0.013l-0.674,0.339l-0.119-0.526l0.895-0.442h0.585v3.681h-0.674V76.602z"></path>
		</g>
	</g>
</g>
<g id="SvgjsG1026">
</g>
</svg><style>@media (prefers-color-scheme: light) { :root { filter: none; } }
@media (prefers-color-scheme: dark) { :root { filter: none; } }
</style></svg>